<svg id="Capa_1" enable-background="new 0 0 511.997 511.997" height="512" viewBox="0 0 511.997 511.997" width="512" xmlns="http://www.w3.org/2000/svg"><g><g><g><g><g><g><path d="m414.976 247.945v164.176c0 4.99-2.734 9.58-7.124 11.959l-145.371 78.765c-4.046 2.189-8.925 2.189-12.959 0l-145.382-78.766c-4.379-2.378-7.113-6.969-7.113-11.959v-164.175z" fill="#a8e7ef"/><g fill="#70d9e6"><path d="m414.976 277.486v55.859l-84 45.512c-3.334 1.8-7.257 2.134-10.847.922l-64.128-21.717v-80.576z"/><path d="m386.233 247.946v187.847l21.62-11.714c4.389-2.378 7.123-6.969 7.123-11.96v-164.173z"/><path d="m256.001 247.945v256.555c-2.234 0-4.457-.545-6.491-1.645l-145.37-78.776c-4.379-2.389-7.113-6.969-7.113-11.959v-164.175z"/></g><path d="m256.001 277.486v80.576l-64.139 21.717c-3.579 1.211-7.513.878-10.836-.922l-84-45.512v-55.859z" fill="#3ad1e0"/><path d="m227.803 247.945v243.14l21.711 11.765c2.027 1.102 4.258 1.646 6.489 1.646v-256.551z" fill="#3ad1e0"/><path d="m255.999 161.809-158.978 86.137 158.978 86.136 158.977-86.136z" fill="#756f6f"/><path d="m382.267 265.672-126.266 68.407-126.266-68.407 82.71-44.817c27.171-14.723 59.941-14.723 87.112 0z" fill="#5b5555"/></g><g><path d="m465.548 189.925-50.572 58.021-158.977-86.137 52.574-60.315c2.092-2.4 5.568-3.028 8.367-1.511l146.721 79.493c3.829 2.075 4.749 7.165 1.887 10.449z" fill="#a8e7ef"/><path d="m326.23 122.972c0 11.859-9.614 21.483-21.473 21.483-9.635 0-17.783-6.339-20.503-15.063l24.061-27.599c10.171 1.698 17.915 10.534 17.915 21.179z" fill="#70d9e6"/></g><g><path d="m46.449 189.925 50.572 58.021 158.977-86.137-52.574-60.315c-2.092-2.4-5.568-3.028-8.367-1.511l-146.72 79.493c-3.83 2.075-4.75 7.165-1.888 10.449z" fill="#d4f2f6"/><path d="m165.931 134.72c0 14.932-12.111 27.033-27.043 27.033-11.616 0-21.523-7.33-25.345-17.611l47.081-25.507c3.335 4.489 5.307 10.059 5.307 16.085z" fill="#a8e7ef"/></g><g><path d="m42.026 266.568 54.995-18.623 158.977 86.137-64.133 21.714c-3.585 1.214-7.514.879-10.842-.924l-140.055-75.881c-5.22-2.828-4.565-10.518 1.058-12.423z" fill="#a8e7ef"/></g><g><path d="m469.971 266.568-54.995-18.623-158.977 86.137 64.133 21.714c3.585 1.214 7.514.879 10.842-.924l140.055-75.882c5.22-2.827 4.565-10.517-1.058-12.422z" fill="#d4f2f6"/></g></g><g><g><g><g><g><path d="m111.85 107.68c0-14.933 12.106-27.039 27.039-27.039s27.039 12.106 27.039 27.039-12.106 27.039-27.039 27.039-27.039-12.106-27.039-27.039" fill="#bcea73"/><path d="m125.175 130.98c10.614-2.447 18.522-11.948 18.522-23.304 0-11.343-7.896-20.857-18.51-23.304 4.016-2.373 8.699-3.732 13.703-3.732 14.926 0 27.035 12.109 27.035 27.035 0 14.938-12.109 27.048-27.035 27.048-5.004.001-9.7-1.358-13.715-3.743" fill="#99d53b"/></g></g></g></g><g><circle cx="304.754" cy="101.497" fill="#64b9fc" r="21.477"/><path d="m326.229 101.494c0 11.866-9.618 21.484-21.475 21.484-3.975 0-7.705-1.08-10.894-2.974 8.431-1.943 14.712-9.491 14.712-18.51 0-9.01-6.272-16.567-14.702-18.511 3.19-1.885 6.91-2.964 10.884-2.964 11.857 0 21.475 9.619 21.475 21.475z" fill="#31a7fb"/></g></g></g><g><circle cx="348.328" cy="32.676" fill="#a8e7ef" r="25.176"/><path d="m373.502 32.673c0 13.909-11.275 25.184-25.173 25.184-4.659 0-9.031-1.266-12.77-3.486 9.883-2.278 17.246-11.125 17.246-21.698 0-10.562-7.352-19.42-17.234-21.698 3.739-2.21 8.099-3.475 12.758-3.475 13.898 0 25.173 11.275 25.173 25.173z" fill="#70d9e6"/></g></g><g><path d="m324.668 272.65c0 9.69-2.01 18.92-5.64 27.28l-63.03 34.15-63.03-34.15c-3.63-8.36-5.64-17.59-5.64-27.28 0-37.92 30.75-68.67 68.67-68.67s68.67 30.75 68.67 68.67z" fill="#a3e440"/><path d="m324.658 272.65c0 9.69-2.01 18.92-5.63 27.28l-44.37 24.04c14.14-12.58 23.05-30.91 23.05-51.32 0-33.31-23.71-61.07-55.18-67.34 4.36-.87 8.86-1.32 13.47-1.32 37.92 0 68.66 30.73 68.66 68.66z" fill="#99d53b"/></g></g><g><path d="m482.04 271.796c-.49-5.754-4.193-10.479-9.664-12.332l-44.39-15.032 43.215-49.58c2.869-3.291 4.069-7.643 3.294-11.939-.776-4.296-3.423-7.953-7.262-10.033l-55.753-30.207c-3.643-1.973-8.193-.621-10.168 3.021-1.973 3.642-.62 8.194 3.021 10.167l54.987 29.792-46.053 52.835-145.461-78.813 26.991-30.965c3.106 1.14 6.46 1.762 9.956 1.762 10.855 0 20.33-6.003 25.293-14.86l41.679 22.582c1.136.615 2.359.907 3.566.907 2.664 0 5.243-1.422 6.602-3.929 1.973-3.642.62-8.194-3.022-10.167l-45.164-24.469c-.509-15.535-13.296-28.018-28.953-28.018-15.978 0-28.977 12.999-28.977 28.977 0 7.035 2.522 13.49 6.706 18.515l-26.484 30.384-46.921-53.829c-4.43-5.083-11.663-6.39-17.594-3.178l-18.341 9.937c-2.149-16.995-16.686-30.185-34.255-30.185-19.044 0-34.538 15.494-34.538 34.539 0 10.53 4.743 19.969 12.198 26.309l-71.784 38.893c-3.838 2.08-6.484 5.736-7.261 10.033-.775 4.296.425 8.648 3.294 11.938l43.214 49.58-44.389 15.031c-5.471 1.853-9.174 6.578-9.664 12.332s2.36 11.038 7.438 13.789l52.127 28.242v28.309c0 4.142 3.357 7.5 7.5 7.5s7.5-3.358 7.5-7.5v-20.182l72.928 39.512c3.111 1.686 6.582 2.543 10.066 2.543 2.278 0 4.563-.367 6.755-1.109l54.228-18.361v149.222l-140.781-76.278c-1.971-1.068-3.195-3.124-3.195-5.366v-32.956c0-4.142-3.357-7.5-7.5-7.5s-7.5 3.358-7.5 7.5v32.956c0 7.752 4.233 14.861 11.049 18.554l145.374 78.767c3.148 1.706 6.601 2.558 10.054 2.558s6.906-.853 10.054-2.558l145.374-78.767c6.815-3.693 11.049-10.802 11.049-18.554v-98.291l52.126-28.242c5.075-2.748 7.926-8.031 7.436-13.786zm-209.461-58.022c26.254 7.38 44.59 31.59 44.59 58.875 0 7.598-1.365 14.972-4.063 21.959l-57.107 30.941-57.107-30.941c-2.697-6.987-4.063-14.361-4.063-21.959 0-27.369 18.406-51.6 44.762-58.925 3.99-1.109 6.326-5.244 5.217-9.234-1.108-3.991-5.245-6.326-9.234-5.218-32.821 9.123-55.744 39.296-55.744 73.377 0 4.11.333 8.167.973 12.159l-68.036-36.863 143.234-77.606 143.233 77.607-68.036 36.863c.64-3.992.973-8.049.973-12.159 0-33.977-22.835-64.125-55.531-73.316-3.988-1.122-8.129 1.204-9.249 5.19-1.124 3.988 1.199 8.129 5.188 9.25zm32.174-126.254c7.707 0 13.978 6.27 13.978 13.977s-6.271 13.978-13.978 13.978-13.977-6.271-13.977-13.978 6.27-13.977 13.977-13.977zm-165.865.621c10.773 0 19.539 8.765 19.539 19.539 0 10.773-8.766 19.539-19.539 19.539s-19.538-8.765-19.538-19.539 8.765-19.539 19.538-19.539zm-5.292 53.672c1.726.267 3.493.406 5.292.406 13.978 0 26.033-8.351 31.464-20.321l27.786-15.054 46.052 52.833-145.461 78.813-46.053-52.835zm55.864 206.88c-1.604.544-3.378.391-4.864-.415l-83.967-45.493c-.022-.012-.045-.024-.067-.036l-54.614-29.59 50.378-17.059 140.99 76.39zm218.015 63.425c0 2.242-1.225 4.298-3.195 5.366l-140.781 76.278v-149.222l54.228 18.361c2.192.742 4.477 1.109 6.756 1.109 3.482 0 6.954-.858 10.065-2.543l72.928-39.512v90.163zm-80.074-63.84c-1.486.806-3.26.959-4.864.415l-47.855-16.203 140.99-76.39 50.378 17.059zm140.164-74.606c-.001 0-.002-.001-.004-.001z"/><path d="m312.088 424.684-17.205 9.322c-3.642 1.973-4.994 6.525-3.021 10.167 1.358 2.506 3.938 3.929 6.602 3.929 1.206 0 2.431-.292 3.566-.907l17.205-9.322c3.642-1.973 4.994-6.525 3.021-10.167s-6.523-4.996-10.168-3.022z"/><path d="m167.694 63.16c1.465 1.464 3.385 2.197 5.304 2.197s3.839-.732 5.304-2.197l6.187-6.187 6.187 6.187c1.465 1.464 3.385 2.197 5.304 2.197s3.839-.732 5.304-2.197c2.929-2.929 2.929-7.678 0-10.606l-6.188-6.188 6.188-6.188c2.929-2.929 2.929-7.678 0-10.606-2.93-2.929-7.678-2.929-10.607 0l-6.187 6.187-6.187-6.187c-2.93-2.929-7.678-2.929-10.607 0s-2.929 7.678 0 10.606l6.188 6.188-6.188 6.188c-2.931 2.928-2.931 7.677-.002 10.606z"/><path d="m389.734 112.29c1.465 1.464 3.385 2.197 5.304 2.197s3.839-.732 5.304-2.197l6.187-6.187 6.187 6.187c1.465 1.464 3.385 2.197 5.304 2.197s3.839-.732 5.304-2.197c2.929-2.929 2.929-7.678 0-10.606l-6.188-6.188 6.188-6.188c2.929-2.929 2.929-7.678 0-10.606-2.93-2.929-7.678-2.929-10.607 0l-6.187 6.187-6.187-6.187c-2.93-2.929-7.678-2.929-10.607 0s-2.929 7.678 0 10.606l6.188 6.188-6.188 6.188c-2.931 2.928-2.931 7.677-.002 10.606z"/><path d="m348.328 65.351c18.018 0 32.676-14.658 32.676-32.675-.001-18.018-14.659-32.676-32.676-32.676s-32.676 14.658-32.676 32.676c0 18.017 14.658 32.675 32.676 32.675zm0-50.351c9.746 0 17.676 7.929 17.676 17.676 0 9.746-7.93 17.675-17.676 17.675s-17.676-7.929-17.676-17.675c0-9.747 7.93-17.676 17.676-17.676z"/><path d="m255.152 280.515c-7.226 0-14.046 2.396-19.214 6.754-3.166 2.67-3.569 7.402-.898 10.568 2.669 3.167 7.401 3.569 10.568.899 2.43-2.049 5.906-3.222 9.545-3.222h.05c3.657.011 7.146 1.206 9.575 3.279 1.413 1.206 3.144 1.795 4.865 1.795 2.119 0 4.225-.893 5.708-2.631 2.689-3.15 2.315-7.885-.835-10.574-5.164-4.408-12.008-6.848-19.27-6.87-.031.002-.063.002-.094.002z"/><path d="m223.421 258.304h-.07c-4.146-.061-7.487 3.307-7.517 7.448-.028 4.142 3.341 7.523 7.483 7.552h.053c4.117 0 7.47-3.324 7.499-7.448.029-4.142-3.305-7.523-7.448-7.552z"/><path d="m287.179 273.15c.026.005.053.008.079.013.216.042.435.077.657.1.072.007.145.007.217.012.167.012.334.028.505.029h.053c.258 0 .513-.013.765-.039 3.787-.379 6.743-3.575 6.743-7.462 0-3.836-2.881-6.993-6.596-7.44-.034-.004-.067-.012-.101-.015-.171-.018-.346-.023-.521-.03-.08-.003-.158-.013-.239-.014h-.039c-.001 0-.003 0-.004 0h-.027-.044c-.003 0-.006 0-.009 0-4.117 0-7.435 3.324-7.464 7.448-.025 3.643 2.579 6.695 6.025 7.398z"/></g></g></svg>